<?xml version="1.0" encoding="UTF-8" standalone="no"?>
<!DOCTYPE svg PUBLIC "-//W3C//DTD SVG 1.1//EN"
 "http://www.w3.org/Graphics/SVG/1.1/DTD/svg11.dtd">
<!-- Generated by graphviz version 2.47.0 (20210316.0004)
 -->
<!-- Title: dependencies Pages: 1 -->
<svg width="1913pt" height="284pt"
 viewBox="0.00 0.00 1913.00 284.00" xmlns="http://www.w3.org/2000/svg" xmlns:xlink="http://www.w3.org/1999/xlink">
<g id="graph0" class="graph" transform="scale(1 1) rotate(0) translate(4 280)">
<title>dependencies</title>
<polygon fill="white" stroke="transparent" points="-4,4 -4,-280 1909,-280 1909,4 -4,4"/>
<text text-anchor="start" x="931.51" y="-42.4" font-family="Times-12" font-weight="bold" font-size="14.00">Legend</text>
<polygon fill="#ffffb3" stroke="transparent" points="718.5,-10 718.5,-30 738.5,-30 738.5,-10 718.5,-10"/>
<text text-anchor="start" x="742.13" y="-15.4" font-family="Times-12" font-size="14.00"> &#160;Declarations</text>
<polygon fill="#8dd3c7" stroke="transparent" points="831.5,-10 831.5,-30 851.5,-30 851.5,-10 831.5,-10"/>
<text text-anchor="start" x="855.23" y="-15.4" font-family="Times-12" font-size="14.00"> &#160;Module</text>
<polygon fill="#80b1d3" stroke="transparent" points="917.5,-10 917.5,-30 937.5,-30 937.5,-10 917.5,-10"/>
<text text-anchor="start" x="941.28" y="-15.4" font-family="Times-12" font-size="14.00"> &#160;Bootstrap</text>
<polygon fill="#fdb462" stroke="transparent" points="1014.5,-10 1014.5,-30 1034.5,-30 1034.5,-10 1014.5,-10"/>
<text text-anchor="start" x="1038.17" y="-15.4" font-family="Times-12" font-size="14.00"> &#160;Providers</text>
<polygon fill="#fb8072" stroke="transparent" points="1110.5,-10 1110.5,-30 1130.5,-30 1130.5,-10 1110.5,-10"/>
<text text-anchor="start" x="1134.23" y="-15.4" font-family="Times-12" font-size="14.00"> &#160;Exports</text>
<g id="clust1" class="cluster">
<title>cluster_AppModule</title>
<polygon fill="none" stroke="black" stroke-dasharray="1,5" points="8,-70 8,-268 1897,-268 1897,-70 8,-70"/>
</g>
<g id="clust13" class="cluster">
<title>cluster_AppModule_bootstrap</title>
<polygon fill="none" stroke="black" points="942,-208 942,-260 1066,-260 1066,-208 942,-208"/>
</g>
<g id="clust14" class="cluster">
<title>cluster_AppModule_providers</title>
<polygon fill="none" stroke="black" points="1755,-78 1755,-130 1889,-130 1889,-78 1755,-78"/>
</g>
<g id="clust11" class="cluster">
<title>cluster_AppModule_imports</title>
<polygon fill="none" stroke="black" points="1201,-78 1201,-130 1747,-130 1747,-78 1201,-78"/>
</g>
<g id="clust2" class="cluster">
<title>cluster_AppModule_declarations</title>
<polygon fill="none" stroke="black" points="16,-78 16,-130 1193,-130 1193,-78 16,-78"/>
</g>
<!-- AppComponent -->
<g id="node1" class="node">
<title>AppComponent</title>
<polygon fill="#ffffb3" stroke="black" points="1184.94,-122 1079.06,-122 1079.06,-86 1184.94,-86 1184.94,-122"/>
<text text-anchor="middle" x="1132" y="-99.8" font-family="Times,serif" font-size="14.00">AppComponent</text>
</g>
<!-- AppModule -->
<g id="node9" class="node">
<title>AppModule</title>
<polygon fill="#8dd3c7" stroke="black" points="1045.66,-187 1042.66,-191 1021.66,-191 1018.66,-187 962.34,-187 962.34,-151 1045.66,-151 1045.66,-187"/>
<text text-anchor="middle" x="1004" y="-164.8" font-family="Times,serif" font-size="14.00">AppModule</text>
</g>
<!-- AppComponent&#45;&gt;AppModule -->
<g id="edge1" class="edge">
<title>AppComponent&#45;&gt;AppModule</title>
<path fill="none" stroke="black" d="M1132,-122.24C1132,-137.57 1132,-157 1132,-157 1132,-157 1055.91,-157 1055.91,-157"/>
<polygon fill="black" stroke="black" points="1055.91,-153.5 1045.91,-157 1055.91,-160.5 1055.91,-153.5"/>
</g>
<!-- LoginComponent -->
<g id="node2" class="node">
<title>LoginComponent</title>
<polygon fill="#ffffb3" stroke="black" points="1061.28,-122 946.72,-122 946.72,-86 1061.28,-86 1061.28,-122"/>
<text text-anchor="middle" x="1004" y="-99.8" font-family="Times,serif" font-size="14.00">LoginComponent</text>
</g>
<!-- LoginComponent&#45;&gt;AppModule -->
<g id="edge2" class="edge">
<title>LoginComponent&#45;&gt;AppModule</title>
<path fill="none" stroke="black" d="M1004,-122.11C1004,-122.11 1004,-140.99 1004,-140.99"/>
<polygon fill="black" stroke="black" points="1000.5,-140.99 1004,-150.99 1007.5,-140.99 1000.5,-140.99"/>
</g>
<!-- IndexComponent -->
<g id="node3" class="node">
<title>IndexComponent</title>
<polygon fill="#ffffb3" stroke="black" points="928.71,-122 815.29,-122 815.29,-86 928.71,-86 928.71,-122"/>
<text text-anchor="middle" x="872" y="-99.8" font-family="Times,serif" font-size="14.00">IndexComponent</text>
</g>
<!-- IndexComponent&#45;&gt;AppModule -->
<g id="edge3" class="edge">
<title>IndexComponent&#45;&gt;AppModule</title>
<path fill="none" stroke="black" d="M872,-122.24C872,-137.57 872,-157 872,-157 872,-157 952.23,-157 952.23,-157"/>
<polygon fill="black" stroke="black" points="952.23,-160.5 962.23,-157 952.23,-153.5 952.23,-160.5"/>
</g>
<!-- RegistroComponent -->
<g id="node4" class="node">
<title>RegistroComponent</title>
<polygon fill="#ffffb3" stroke="black" points="797.27,-122 668.73,-122 668.73,-86 797.27,-86 797.27,-122"/>
<text text-anchor="middle" x="733" y="-99.8" font-family="Times,serif" font-size="14.00">RegistroComponent</text>
</g>
<!-- RegistroComponent&#45;&gt;AppModule -->
<g id="edge4" class="edge">
<title>RegistroComponent&#45;&gt;AppModule</title>
<path fill="none" stroke="black" d="M733,-122.03C733,-139.06 733,-162 733,-162 733,-162 952.25,-162 952.25,-162"/>
<polygon fill="black" stroke="black" points="952.25,-165.5 962.25,-162 952.25,-158.5 952.25,-165.5"/>
</g>
<!-- InventarioComponent -->
<g id="node5" class="node">
<title>InventarioComponent</title>
<polygon fill="#ffffb3" stroke="black" points="650.36,-122 511.64,-122 511.64,-86 650.36,-86 650.36,-122"/>
<text text-anchor="middle" x="581" y="-99.8" font-family="Times,serif" font-size="14.00">InventarioComponent</text>
</g>
<!-- InventarioComponent&#45;&gt;AppModule -->
<g id="edge5" class="edge">
<title>InventarioComponent&#45;&gt;AppModule</title>
<path fill="none" stroke="black" d="M581,-122.22C581,-140.83 581,-167 581,-167 581,-167 952.28,-167 952.28,-167"/>
<polygon fill="black" stroke="black" points="952.28,-170.5 962.28,-167 952.28,-163.5 952.28,-170.5"/>
</g>
<!-- ReportesComponent -->
<g id="node6" class="node">
<title>ReportesComponent</title>
<polygon fill="#ffffb3" stroke="black" points="493.59,-122 362.41,-122 362.41,-86 493.59,-86 493.59,-122"/>
<text text-anchor="middle" x="428" y="-99.8" font-family="Times,serif" font-size="14.00">ReportesComponent</text>
</g>
<!-- ReportesComponent&#45;&gt;AppModule -->
<g id="edge6" class="edge">
<title>ReportesComponent&#45;&gt;AppModule</title>
<path fill="none" stroke="black" d="M428,-122.22C428,-142.37 428,-172 428,-172 428,-172 952.11,-172 952.11,-172"/>
<polygon fill="black" stroke="black" points="952.11,-175.5 962.11,-172 952.11,-168.5 952.11,-175.5"/>
</g>
<!-- UsuariosComponent -->
<g id="node7" class="node">
<title>UsuariosComponent</title>
<polygon fill="#ffffb3" stroke="black" points="344.59,-122 213.41,-122 213.41,-86 344.59,-86 344.59,-122"/>
<text text-anchor="middle" x="279" y="-99.8" font-family="Times,serif" font-size="14.00">UsuariosComponent</text>
</g>
<!-- UsuariosComponent&#45;&gt;AppModule -->
<g id="edge7" class="edge">
<title>UsuariosComponent&#45;&gt;AppModule</title>
<path fill="none" stroke="black" d="M279,-122.04C279,-143.66 279,-177 279,-177 279,-177 952.15,-177 952.15,-177"/>
<polygon fill="black" stroke="black" points="952.15,-180.5 962.15,-177 952.15,-173.5 952.15,-180.5"/>
</g>
<!-- RecuperarClaveComponent -->
<g id="node8" class="node">
<title>RecuperarClaveComponent</title>
<polygon fill="#ffffb3" stroke="black" points="195.51,-122 24.49,-122 24.49,-86 195.51,-86 195.51,-122"/>
<text text-anchor="middle" x="110" y="-99.8" font-family="Times,serif" font-size="14.00">RecuperarClaveComponent</text>
</g>
<!-- RecuperarClaveComponent&#45;&gt;AppModule -->
<g id="edge8" class="edge">
<title>RecuperarClaveComponent&#45;&gt;AppModule</title>
<path fill="none" stroke="black" d="M110,-122.09C110,-145.13 110,-182 110,-182 110,-182 952.08,-182 952.08,-182"/>
<polygon fill="black" stroke="black" points="952.08,-185.5 962.08,-182 952.08,-178.5 952.08,-185.5"/>
</g>
<!-- AppComponent  -->
<g id="node14" class="node">
<title>AppComponent </title>
<polygon fill="#80b1d3" stroke="black" points="1058.44,-252 949.56,-252 949.56,-216 1058.44,-216 1058.44,-252"/>
<text text-anchor="middle" x="1004" y="-229.8" font-family="Times,serif" font-size="14.00">AppComponent </text>
</g>
<!-- AppModule&#45;&gt;AppComponent  -->
<g id="edge13" class="edge">
<title>AppModule&#45;&gt;AppComponent </title>
<path fill="none" stroke="black" stroke-dasharray="1,5" d="M1004,-187.11C1004,-187.11 1004,-205.99 1004,-205.99"/>
<polygon fill="black" stroke="black" points="1000.5,-205.99 1004,-215.99 1007.5,-205.99 1000.5,-205.99"/>
</g>
<!-- FormsModule -->
<g id="node10" class="node">
<title>FormsModule</title>
<polygon fill="#8dd3c7" stroke="black" points="1738.83,-122 1735.83,-126 1714.83,-126 1711.83,-122 1643.17,-122 1643.17,-86 1738.83,-86 1738.83,-122"/>
<text text-anchor="middle" x="1691" y="-99.8" font-family="Times,serif" font-size="14.00">FormsModule</text>
</g>
<!-- FormsModule&#45;&gt;AppModule -->
<g id="edge9" class="edge">
<title>FormsModule&#45;&gt;AppModule</title>
<path fill="none" stroke="black" d="M1691,-122.04C1691,-143.66 1691,-177 1691,-177 1691,-177 1055.68,-177 1055.68,-177"/>
<polygon fill="black" stroke="black" points="1055.68,-173.5 1045.68,-177 1055.68,-180.5 1055.68,-173.5"/>
</g>
<!-- BrowserModule -->
<g id="node11" class="node">
<title>BrowserModule</title>
<polygon fill="#8dd3c7" stroke="black" points="1625.47,-122 1622.47,-126 1601.47,-126 1598.47,-122 1518.53,-122 1518.53,-86 1625.47,-86 1625.47,-122"/>
<text text-anchor="middle" x="1572" y="-99.8" font-family="Times,serif" font-size="14.00">BrowserModule</text>
</g>
<!-- BrowserModule&#45;&gt;AppModule -->
<g id="edge10" class="edge">
<title>BrowserModule&#45;&gt;AppModule</title>
<path fill="none" stroke="black" d="M1572,-122.22C1572,-142.37 1572,-172 1572,-172 1572,-172 1055.77,-172 1055.77,-172"/>
<polygon fill="black" stroke="black" points="1055.77,-168.5 1045.77,-172 1055.77,-175.5 1055.77,-168.5"/>
</g>
<!-- AppRoutingModule -->
<g id="node12" class="node">
<title>AppRoutingModule</title>
<polygon fill="#8dd3c7" stroke="black" points="1500.27,-122 1497.27,-126 1476.27,-126 1473.27,-122 1371.73,-122 1371.73,-86 1500.27,-86 1500.27,-122"/>
<text text-anchor="middle" x="1436" y="-99.8" font-family="Times,serif" font-size="14.00">AppRoutingModule</text>
</g>
<!-- AppRoutingModule&#45;&gt;AppModule -->
<g id="edge11" class="edge">
<title>AppRoutingModule&#45;&gt;AppModule</title>
<path fill="none" stroke="black" d="M1436,-122.22C1436,-140.83 1436,-167 1436,-167 1436,-167 1055.81,-167 1055.81,-167"/>
<polygon fill="black" stroke="black" points="1055.81,-163.5 1045.81,-167 1055.81,-170.5 1055.81,-163.5"/>
</g>
<!-- ReactiveFormsModule -->
<g id="node13" class="node">
<title>ReactiveFormsModule</title>
<polygon fill="#8dd3c7" stroke="black" points="1353.3,-122 1350.3,-126 1329.3,-126 1326.3,-122 1208.7,-122 1208.7,-86 1353.3,-86 1353.3,-122"/>
<text text-anchor="middle" x="1281" y="-99.8" font-family="Times,serif" font-size="14.00">ReactiveFormsModule</text>
</g>
<!-- ReactiveFormsModule&#45;&gt;AppModule -->
<g id="edge12" class="edge">
<title>ReactiveFormsModule&#45;&gt;AppModule</title>
<path fill="none" stroke="black" d="M1281,-122.03C1281,-139.06 1281,-162 1281,-162 1281,-162 1055.77,-162 1055.77,-162"/>
<polygon fill="black" stroke="black" points="1055.77,-158.5 1045.77,-162 1055.77,-165.5 1055.77,-158.5"/>
</g>
<!-- AuthService -->
<g id="node15" class="node">
<title>AuthService</title>
<ellipse fill="#fdb462" stroke="black" cx="1822" cy="-104" rx="59.11" ry="18"/>
<text text-anchor="middle" x="1822" y="-99.8" font-family="Times,serif" font-size="14.00">AuthService</text>
</g>
<!-- AuthService&#45;&gt;AppModule -->
<g id="edge14" class="edge">
<title>AuthService&#45;&gt;AppModule</title>
<path fill="none" stroke="black" d="M1822,-122.09C1822,-145.13 1822,-182 1822,-182 1822,-182 1055.69,-182 1055.69,-182"/>
<polygon fill="black" stroke="black" points="1055.69,-178.5 1045.69,-182 1055.69,-185.5 1055.69,-178.5"/>
</g>
</g>
</svg>
