<?xml version="1.0" encoding="UTF-8" standalone="no"?>
<!DOCTYPE svg PUBLIC "-//W3C//DTD SVG 1.1//EN"
 "http://www.w3.org/Graphics/SVG/1.1/DTD/svg11.dtd">
<!-- Generated by graphviz version 2.47.0 (20210316.0004)
 -->
<!-- Title: dependencies Pages: 1 -->
<svg width="1322pt" height="284pt"
 viewBox="0.00 0.00 1322.00 284.00" xmlns="http://www.w3.org/2000/svg" xmlns:xlink="http://www.w3.org/1999/xlink">
<g id="graph0" class="graph" transform="scale(1 1) rotate(0) translate(4 280)">
<title>dependencies</title>
<polygon fill="white" stroke="transparent" points="-4,4 -4,-280 1318,-280 1318,4 -4,4"/>
<text text-anchor="start" x="636.01" y="-42.4" font-family="Times-12" font-weight="bold" font-size="14.00">Legend</text>
<polygon fill="#ffffb3" stroke="transparent" points="423,-10 423,-30 443,-30 443,-10 423,-10"/>
<text text-anchor="start" x="446.63" y="-15.4" font-family="Times-12" font-size="14.00"> &#160;Declarations</text>
<polygon fill="#8dd3c7" stroke="transparent" points="536,-10 536,-30 556,-30 556,-10 536,-10"/>
<text text-anchor="start" x="559.73" y="-15.4" font-family="Times-12" font-size="14.00"> &#160;Module</text>
<polygon fill="#80b1d3" stroke="transparent" points="622,-10 622,-30 642,-30 642,-10 622,-10"/>
<text text-anchor="start" x="645.78" y="-15.4" font-family="Times-12" font-size="14.00"> &#160;Bootstrap</text>
<polygon fill="#fdb462" stroke="transparent" points="719,-10 719,-30 739,-30 739,-10 719,-10"/>
<text text-anchor="start" x="742.67" y="-15.4" font-family="Times-12" font-size="14.00"> &#160;Providers</text>
<polygon fill="#fb8072" stroke="transparent" points="815,-10 815,-30 835,-30 835,-10 815,-10"/>
<text text-anchor="start" x="838.73" y="-15.4" font-family="Times-12" font-size="14.00"> &#160;Exports</text>
<g id="clust1" class="cluster">
<title>cluster_AppModule</title>
<polygon fill="none" stroke="black" stroke-dasharray="1,5" points="8,-70 8,-268 1306,-268 1306,-70 8,-70"/>
</g>
<g id="clust2" class="cluster">
<title>cluster_AppModule_declarations</title>
<polygon fill="none" stroke="black" points="310,-78 310,-130 1298,-130 1298,-78 310,-78"/>
</g>
<g id="clust10" class="cluster">
<title>cluster_AppModule_imports</title>
<polygon fill="none" stroke="black" points="158,-78 158,-130 302,-130 302,-78 158,-78"/>
</g>
<g id="clust12" class="cluster">
<title>cluster_AppModule_bootstrap</title>
<polygon fill="none" stroke="black" points="619,-208 619,-260 743,-260 743,-208 619,-208"/>
</g>
<g id="clust13" class="cluster">
<title>cluster_AppModule_providers</title>
<polygon fill="none" stroke="black" points="16,-78 16,-130 150,-130 150,-78 16,-78"/>
</g>
<!-- AppComponent -->
<g id="node1" class="node">
<title>AppComponent</title>
<polygon fill="#ffffb3" stroke="black" points="1289.94,-122 1184.06,-122 1184.06,-86 1289.94,-86 1289.94,-122"/>
<text text-anchor="middle" x="1237" y="-99.8" font-family="Times,serif" font-size="14.00">AppComponent</text>
</g>
<!-- AppModule -->
<g id="node8" class="node">
<title>AppModule</title>
<polygon fill="#8dd3c7" stroke="black" points="722.66,-187 719.66,-191 698.66,-191 695.66,-187 639.34,-187 639.34,-151 722.66,-151 722.66,-187"/>
<text text-anchor="middle" x="681" y="-164.8" font-family="Times,serif" font-size="14.00">AppModule</text>
</g>
<!-- AppComponent&#45;&gt;AppModule -->
<g id="edge1" class="edge">
<title>AppComponent&#45;&gt;AppModule</title>
<path fill="none" stroke="black" d="M1237,-122.01C1237,-144.49 1237,-180 1237,-180 1237,-180 732.79,-180 732.79,-180"/>
<polygon fill="black" stroke="black" points="732.79,-176.5 722.79,-180 732.79,-183.5 732.79,-176.5"/>
</g>
<!-- IndexComponent -->
<g id="node2" class="node">
<title>IndexComponent</title>
<polygon fill="#ffffb3" stroke="black" points="1166.71,-122 1053.29,-122 1053.29,-86 1166.71,-86 1166.71,-122"/>
<text text-anchor="middle" x="1110" y="-99.8" font-family="Times,serif" font-size="14.00">IndexComponent</text>
</g>
<!-- IndexComponent&#45;&gt;AppModule -->
<g id="edge2" class="edge">
<title>IndexComponent&#45;&gt;AppModule</title>
<path fill="none" stroke="black" d="M1110,-122.13C1110,-142.57 1110,-173 1110,-173 1110,-173 732.92,-173 732.92,-173"/>
<polygon fill="black" stroke="black" points="732.92,-169.5 722.92,-173 732.92,-176.5 732.92,-169.5"/>
</g>
<!-- InventarioComponent -->
<g id="node3" class="node">
<title>InventarioComponent</title>
<polygon fill="#ffffb3" stroke="black" points="1035.36,-122 896.64,-122 896.64,-86 1035.36,-86 1035.36,-122"/>
<text text-anchor="middle" x="966" y="-99.8" font-family="Times,serif" font-size="14.00">InventarioComponent</text>
</g>
<!-- InventarioComponent&#45;&gt;AppModule -->
<g id="edge3" class="edge">
<title>InventarioComponent&#45;&gt;AppModule</title>
<path fill="none" stroke="black" d="M966,-122.27C966,-140.56 966,-166 966,-166 966,-166 732.75,-166 732.75,-166"/>
<polygon fill="black" stroke="black" points="732.75,-162.5 722.75,-166 732.75,-169.5 732.75,-162.5"/>
</g>
<!-- LoginComponent -->
<g id="node4" class="node">
<title>LoginComponent</title>
<polygon fill="#ffffb3" stroke="black" points="878.28,-122 763.72,-122 763.72,-86 878.28,-86 878.28,-122"/>
<text text-anchor="middle" x="821" y="-99.8" font-family="Times,serif" font-size="14.00">LoginComponent</text>
</g>
<!-- LoginComponent&#45;&gt;AppModule -->
<g id="edge4" class="edge">
<title>LoginComponent&#45;&gt;AppModule</title>
<path fill="none" stroke="black" d="M821,-122.01C821,-138.05 821,-159 821,-159 821,-159 733,-159 733,-159"/>
<polygon fill="black" stroke="black" points="733,-155.5 723,-159 733,-162.5 733,-155.5"/>
</g>
<!-- RegistroComponent -->
<g id="node5" class="node">
<title>RegistroComponent</title>
<polygon fill="#ffffb3" stroke="black" points="745.27,-122 616.73,-122 616.73,-86 745.27,-86 745.27,-122"/>
<text text-anchor="middle" x="681" y="-99.8" font-family="Times,serif" font-size="14.00">RegistroComponent</text>
</g>
<!-- RegistroComponent&#45;&gt;AppModule -->
<g id="edge5" class="edge">
<title>RegistroComponent&#45;&gt;AppModule</title>
<path fill="none" stroke="black" d="M681,-122.11C681,-122.11 681,-140.99 681,-140.99"/>
<polygon fill="black" stroke="black" points="677.5,-140.99 681,-150.99 684.5,-140.99 677.5,-140.99"/>
</g>
<!-- ReportesComponent -->
<g id="node6" class="node">
<title>ReportesComponent</title>
<polygon fill="#ffffb3" stroke="black" points="598.59,-122 467.41,-122 467.41,-86 598.59,-86 598.59,-122"/>
<text text-anchor="middle" x="533" y="-99.8" font-family="Times,serif" font-size="14.00">ReportesComponent</text>
</g>
<!-- ReportesComponent&#45;&gt;AppModule -->
<g id="edge6" class="edge">
<title>ReportesComponent&#45;&gt;AppModule</title>
<path fill="none" stroke="black" d="M533,-122.01C533,-138.05 533,-159 533,-159 533,-159 628.99,-159 628.99,-159"/>
<polygon fill="black" stroke="black" points="628.99,-162.5 638.99,-159 628.98,-155.5 628.99,-162.5"/>
</g>
<!-- UsuariosComponent -->
<g id="node7" class="node">
<title>UsuariosComponent</title>
<polygon fill="#ffffb3" stroke="black" points="449.59,-122 318.41,-122 318.41,-86 449.59,-86 449.59,-122"/>
<text text-anchor="middle" x="384" y="-99.8" font-family="Times,serif" font-size="14.00">UsuariosComponent</text>
</g>
<!-- UsuariosComponent&#45;&gt;AppModule -->
<g id="edge7" class="edge">
<title>UsuariosComponent&#45;&gt;AppModule</title>
<path fill="none" stroke="black" d="M384,-122.27C384,-140.56 384,-166 384,-166 384,-166 629.08,-166 629.08,-166"/>
<polygon fill="black" stroke="black" points="629.08,-169.5 639.08,-166 629.08,-162.5 629.08,-169.5"/>
</g>
<!-- AppComponent  -->
<g id="node10" class="node">
<title>AppComponent </title>
<polygon fill="#80b1d3" stroke="black" points="735.44,-252 626.56,-252 626.56,-216 735.44,-216 735.44,-252"/>
<text text-anchor="middle" x="681" y="-229.8" font-family="Times,serif" font-size="14.00">AppComponent </text>
</g>
<!-- AppModule&#45;&gt;AppComponent  -->
<g id="edge9" class="edge">
<title>AppModule&#45;&gt;AppComponent </title>
<path fill="none" stroke="black" stroke-dasharray="1,5" d="M681,-187.11C681,-187.11 681,-205.99 681,-205.99"/>
<polygon fill="black" stroke="black" points="677.5,-205.99 681,-215.99 684.5,-205.99 677.5,-205.99"/>
</g>
<!-- AppRoutingModule -->
<g id="node9" class="node">
<title>AppRoutingModule</title>
<polygon fill="#8dd3c7" stroke="black" points="294.27,-122 291.27,-126 270.27,-126 267.27,-122 165.73,-122 165.73,-86 294.27,-86 294.27,-122"/>
<text text-anchor="middle" x="230" y="-99.8" font-family="Times,serif" font-size="14.00">AppRoutingModule</text>
</g>
<!-- AppRoutingModule&#45;&gt;AppModule -->
<g id="edge8" class="edge">
<title>AppRoutingModule&#45;&gt;AppModule</title>
<path fill="none" stroke="black" d="M230,-122.13C230,-142.57 230,-173 230,-173 230,-173 628.98,-173 628.98,-173"/>
<polygon fill="black" stroke="black" points="628.98,-176.5 638.98,-173 628.98,-169.5 628.98,-176.5"/>
</g>
<!-- AuthService -->
<g id="node11" class="node">
<title>AuthService</title>
<ellipse fill="#fdb462" stroke="black" cx="83" cy="-104" rx="59.11" ry="18"/>
<text text-anchor="middle" x="83" y="-99.8" font-family="Times,serif" font-size="14.00">AuthService</text>
</g>
<!-- AuthService&#45;&gt;AppModule -->
<g id="edge10" class="edge">
<title>AuthService&#45;&gt;AppModule</title>
<path fill="none" stroke="black" d="M83,-122.01C83,-144.49 83,-180 83,-180 83,-180 628.95,-180 628.95,-180"/>
<polygon fill="black" stroke="black" points="628.95,-183.5 638.95,-180 628.95,-176.5 628.95,-183.5"/>
</g>
</g>
</svg>
